<svg width="150" height="175" viewBox="0 0 150 175" fill="none" xmlns="http://www.w3.org/2000/svg">
<rect y="25" width="150" height="150" rx="15" fill="#2E2E2E"/>
<path d="M100 25C100 38.8071 88.8071 50 75 50C61.1929 50 50 38.8071 50 25C50 11.1929 61.1929 0 75 0C88.8071 0 100 11.1929 100 25Z" fill="#2E2E2E"/>
<path d="M100 25C100 38.8071 88.8071 50 75 50C61.1929 50 50 38.8071 50 25C50 11.1929 61.1929 0 75 0C88.8071 0 100 11.1929 100 25Z" fill="#2E2E2E"/>
<path d="M75 100C88.8125 100 100 88.8125 100 75C100 61.1875 88.8125 50 75 50C61.1875 50 50 61.1875 50 75C50 88.8125 61.1875 100 75 100ZM75 112.5C58.3125 112.5 25 120.875 25 137.5V150H125V137.5C125 120.875 91.6875 112.5 75 112.5Z" fill="white"/>
<path d="M82 24.5C82 28.6421 78.6421 32 74.5 32C70.3579 32 67 28.6421 67 24.5C67 20.3579 70.3579 17 74.5 17C78.6421 17 82 20.3579 82 24.5Z" fill="white"/>
<path d="M82 24.5C82 28.6421 78.6421 32 74.5 32C70.3579 32 67 28.6421 67 24.5C67 20.3579 70.3579 17 74.5 17C78.6421 17 82 20.3579 82 24.5Z" fill="white"/>
</svg>
