<svg width="24" height="24" viewBox="0 0 24 24" fill="none" xmlns="http://www.w3.org/2000/svg">
<g clip-path="url(#clip0_1030_1840)">
<path fill-rule="evenodd" clip-rule="evenodd" d="M22.94 1.82003C22.2355 0.990537 21.2985 0.391392 20.25 0.100026C19.4956 -0.0815055 18.702 -0.00037384 18 0.330026C17.316 0.622957 16.7273 1.10086 16.3 1.71003C16.1349 1.91721 15.9877 2.138 15.86 2.37003C15.7992 2.48427 15.765 2.61074 15.76 2.74003C15.7912 2.84863 15.8471 2.94851 15.9235 3.0318C15.9998 3.1151 16.0945 3.17953 16.2 3.22003C16.8006 3.4852 17.3849 3.78572 17.95 4.12003C18.0309 4.17174 18.129 4.18921 18.2228 4.16858C18.3165 4.14795 18.3983 4.09092 18.45 4.01003C18.5017 3.92914 18.5192 3.83101 18.4985 3.73724C18.4779 3.64348 18.4209 3.56174 18.34 3.51003C17.8591 3.18459 17.3618 2.88419 16.85 2.61003C16.93 2.47003 17 2.30003 17.04 2.24003C17.3882 1.78339 17.8603 1.43632 18.4 1.24003C18.885 1.03757 19.4245 1.00584 19.93 1.15003C20.747 1.41512 21.4673 1.91618 22 2.59003C22.5181 3.22379 22.7692 4.03435 22.7 4.85003C22.7148 4.99966 22.7148 5.15039 22.7 5.30003C22.684 5.39932 22.6571 5.49656 22.62 5.59003C22.5044 5.56941 22.3906 5.5393 22.28 5.50003C21.5898 5.30496 20.92 5.04375 20.28 4.72003L19.97 4.58003C19.8909 4.5362 19.8 4.5184 19.7103 4.52917C19.6205 4.53995 19.5364 4.57873 19.47 4.64003C19.26 4.86003 18.58 5.75003 18.16 6.23003C15.51 4.00003 11.77 3.60003 9.04997 4.00003C7.80417 4.20253 6.6363 4.73809 5.66997 5.55003C5.32997 5.21003 4.82997 4.62003 4.59997 4.45003C4.52703 4.3979 4.43962 4.36988 4.34997 4.36988C4.26032 4.36988 4.17291 4.3979 4.09997 4.45003L3.82997 4.67003C3.25816 5.1459 2.64583 5.57085 1.99997 5.94003C1.89997 5.94003 1.76997 6.07003 1.66997 6.11003C1.62399 6.02625 1.58389 5.93937 1.54997 5.85003C1.50196 5.70566 1.46189 5.55878 1.42997 5.41003C1.22885 4.61038 1.34723 3.76384 1.75997 3.05003C2.17972 2.31618 2.80557 1.72162 3.55997 1.34003C4.03263 1.1124 4.5687 1.05245 5.07997 1.17003C5.63388 1.26405 6.15212 1.50589 6.57997 1.87003C6.63997 1.93003 6.75997 2.14003 6.87997 2.26003C6.52447 2.69678 6.09032 3.0631 5.59997 3.34003C5.50511 3.35716 5.42067 3.41064 5.36464 3.48908C5.30861 3.56752 5.28541 3.66473 5.29997 3.76003C5.31935 3.85372 5.37337 3.93666 5.45122 3.99227C5.52908 4.04789 5.62505 4.07208 5.71997 4.06003C6.29538 3.80666 6.81785 3.44704 7.25997 3.00003L7.74997 2.55003C7.80791 2.49585 7.85183 2.42841 7.87796 2.35351C7.90409 2.27861 7.91164 2.19849 7.89997 2.12003C7.87343 1.99288 7.81876 1.87329 7.73997 1.77003C7.57458 1.56359 7.39409 1.36972 7.19997 1.19003C6.66662 0.672944 6.0031 0.310081 5.27997 0.140026C4.52371 -0.0656497 3.72009 -0.00925568 2.99997 0.300026C2.01793 0.768337 1.19922 1.52086 0.649971 2.46003C0.107644 3.44645 -0.025242 4.60651 0.279971 5.69003C0.34628 5.93182 0.436735 6.16633 0.549971 6.39003C0.63288 6.56465 0.740668 6.72633 0.869971 6.87003C1.0426 7.0346 1.26527 7.13677 1.50261 7.16033C1.73995 7.18388 1.97836 7.12746 2.17997 7.00003C2.98252 6.51677 3.72444 5.93934 4.38997 5.28003C4.61997 5.48003 4.90997 5.76003 5.15997 5.99003C4.15114 6.99907 3.40889 8.24302 2.99997 9.61003C2.14779 12.3522 2.41006 15.3198 3.72997 17.87C3.97178 18.3059 4.26377 18.712 4.59997 19.08L3.69997 21.81C3.6201 22.0791 3.58629 22.3597 3.59997 22.64C3.62679 22.8589 3.72523 23.0629 3.87997 23.22C3.99339 23.3345 4.12522 23.4292 4.26997 23.5C4.41997 23.58 4.59997 23.64 4.73997 23.7C5.00373 23.8193 5.27832 23.9131 5.55997 23.98C5.72915 24.0337 5.91079 24.0337 6.07997 23.98C6.38647 23.8324 6.66952 23.6403 6.91997 23.41C7.24067 23.0959 7.54127 22.7619 7.81997 22.41L8.45997 21.59C9.58136 21.9712 10.7557 22.1736 11.94 22.19C13.4424 22.2198 14.9335 21.9229 16.31 21.32C16.31 21.38 16.45 21.47 16.48 21.49L17.26 22.2C17.5972 22.4936 17.9511 22.7674 18.32 23.02C18.6108 23.2034 18.9277 23.3417 19.26 23.43C19.4379 23.4616 19.6211 23.4443 19.79 23.38C20.052 23.2548 20.3028 23.1076 20.54 22.94C20.7173 22.8394 20.8847 22.7222 21.04 22.59C21.1365 22.5094 21.2207 22.415 21.29 22.31C21.4098 22.1265 21.466 21.9086 21.45 21.69C21.4102 21.4153 21.3186 21.1506 21.18 20.91L20 18.8C19.958 18.7281 19.8903 18.6747 19.8105 18.6506C19.7307 18.6265 19.6448 18.6334 19.57 18.67C19.4944 18.7085 19.4373 18.7754 19.411 18.8561C19.3848 18.9367 19.3916 19.0244 19.43 19.1C19.58 19.46 19.73 19.82 19.87 20.19C20.01 20.56 20.11 20.93 20.23 21.29C20.35 21.65 20.48 21.7 19.93 22.06C19.57 22.28 19.4 22.25 18.93 22.06C18.5639 21.8835 18.2098 21.683 17.87 21.46L17 20.91C18.2858 20.2161 19.3317 19.1494 20 17.85C20.0437 17.7638 20.0515 17.6638 20.0215 17.5719C19.9914 17.48 19.9262 17.4038 19.84 17.36C19.7538 17.3163 19.6537 17.3085 19.5618 17.3385C19.4699 17.3686 19.3937 17.4338 19.35 17.52C17.95 20.2 14.96 21.33 12 21.22C9.03997 21.11 5.99997 19.73 4.74997 17.34C3.6064 15.0635 3.39129 12.432 4.14997 10C4.45732 8.79725 5.09815 7.70576 5.99867 6.85124C6.89918 5.99673 8.02275 5.41395 9.23997 5.17003C11.74 4.71003 15.24 4.99003 17.58 7.00003C19.39 8.55003 20.52 11.13 20.07 15.14C20.0613 15.2245 20.0856 15.3091 20.1378 15.3762C20.1899 15.4432 20.2659 15.4876 20.35 15.5C20.392 15.5056 20.4348 15.5028 20.4758 15.4917C20.5167 15.4806 20.5551 15.4615 20.5886 15.4354C20.6221 15.4094 20.6501 15.3769 20.6709 15.3399C20.6918 15.3029 20.705 15.2622 20.71 15.22C21.28 11.16 20.24 8.45003 18.53 6.69003C18.89 6.34003 19.4 5.78003 19.72 5.45003C20.5097 5.93004 21.3562 6.30964 22.24 6.58003C22.4585 6.65533 22.6951 6.66116 22.9171 6.5967C23.1391 6.53225 23.3357 6.40067 23.48 6.22003C23.5854 6.056 23.6662 5.87745 23.72 5.69003C23.7898 5.44491 23.8367 5.19383 23.86 4.94003C23.9694 3.82008 23.6395 2.70143 22.94 1.82003ZM7.66997 21.25L7.16997 21.74C6.86997 22.01 6.51997 22.24 6.23997 22.53C5.95997 22.82 5.54997 22.71 5.16997 22.53C4.60997 22.28 4.63997 22.38 5.09997 19.93V19.65C5.86118 20.3233 6.72989 20.8641 7.66997 21.25Z" fill="black"/>
<path fill-rule="evenodd" clip-rule="evenodd" d="M10.29 14.14C10.3166 14.3412 10.4038 14.5296 10.54 14.68C10.6982 14.8247 10.9057 14.9034 11.12 14.9C11.3455 14.8691 11.5692 14.8257 11.79 14.77C12.1605 14.7011 12.5343 14.651 12.91 14.62L14.08 14.53H15C15.1963 14.5343 15.3921 14.5073 15.58 14.45H15.69C15.7577 14.4122 15.8121 14.3545 15.8461 14.2848C15.8801 14.2151 15.8919 14.1366 15.88 14.06C15.872 14.0005 15.8483 13.9441 15.8114 13.8967C15.7745 13.8493 15.7257 13.8125 15.67 13.79C15.45 13.71 15.2 13.79 15.15 13.79L14.15 13.66C13.66 13.66 13.15 13.6 12.71 13.6C12.377 13.5796 12.043 13.5796 11.71 13.6C11.6285 13.622 11.5483 13.6487 11.47 13.68C11.54 12.68 11.64 14.15 11.28 10.33L11.23 9.21002V8.68002C11.2354 8.6469 11.2354 8.61313 11.23 8.58002C11.234 8.52229 11.2162 8.46516 11.18 8.42002C11.18 8.36002 10.65 8.18002 10.58 8.60002C10.58 8.74002 10.52 9.14002 10.51 9.21002L10.39 10.33C10.39 10.9 10.3 11.46 10.3 12.03C10.28 12.4164 10.28 12.8036 10.3 13.19C10.28 13.36 10.25 13.84 10.29 14.14Z" fill="black"/>
</g>
<defs>
<clipPath id="clip0_1030_1840">
<rect width="24" height="24" fill="white"/>
</clipPath>
</defs>
</svg>
